<svg xmlns="http://www.w3.org/2000/svg" version="1.1" xmlns:xlink="http://www.w3.org/1999/xlink" xmlns:svgjs="http://svgjs.dev/svgjs" width="100%" height="100%" viewBox="0 0 1000 600"><rect width="1000" height="600" x="0" y="0" fill="#2f4454"/><g><rect width="333.3333333333333" height="333.3333333333333" rx="13.333333333333334" ry="13.333333333333334" y="256.23114560315014" fill="#eee2dc" transform="matrix(0.5341676921399623,0,0,0.5341676921399623,0,74.10165270657279)" x="234.0089111328125"/><path d="M419.17616187984646 495.7851325427926L419.17616187984646 396.48936322988135L421.28883782267434 374.3062658301884L420.2324998512604 374.3062658301884L412.1925941799431 394.5820863370506L373.7536291090466 461.3367775861266L368.4719392519769 461.3367775861266L327.68555646682717 394.3766872870534L320.08579161693234 374.3062658301884L319.0294536455184 374.3062658301884L321.9930685097631 396.2839641798842L321.9930685097631 495.7851325427926L305.50245906713417 495.7851325427926L305.50245906713417 347.89781654483966L318.58931282409594 347.89781654483966L364.86278451631256 423.54335238664976L371.84635221621585 440.00461910785043L372.2571503162102 440.00461910785043L378.8005771946911 423.10321156522724L422.96137294407976 347.89781654483966L436.6937665724611 347.89781654483966L436.6937665724611 495.7851325427926L419.17616187984646 495.7851325427926ZM478.33108827902765 459.01870259330155L478.33108827902765 347.89781654483966L495.8486929716423 347.89781654483966L495.8486929716423 463.2440544789573Q495.8486929716423 480.14546202158056 488.36629900746016 489.03630661431464Q480.8545623218498 497.89780848562054 465.6550326220603 497.89780848562054L465.6550326220603 497.89780848562054Q463.9531547792267 497.89780848562054 461.4296807364044 497.6924094356234Q458.87686397215407 497.4870103856262 456.35338992933185 497.0468695642037Q453.80057316508146 496.6360714642094 451.3944700079719 495.9905315927898Q448.95902412943417 495.3743344427983 447.46254533659777 494.52339552138153L447.46254533659777 494.52339552138153L450.8663010222649 479.529264871589Q456.7641880293262 482.25813796440843 463.7477557292294 482.25813796440843L463.7477557292294 482.25813796440843Q472.6092576005354 482.25813796440843 475.45550157906746 476.0374810216374Q478.33108827902765 469.7874813574382 478.33108827902765 459.01870259330155L478.33108827902765 459.01870259330155Z " fill="#2f4454" transform="matrix(0.5341676921399623,0,0,0.5341676921399623,0,74.10165270657279)"/><path d="M738.4020296863204 463.3416591483479L738.4020296863204 386.71122189441866L740.0324645215103 369.5916561249238L739.2172471039154 369.5916561249238L733.0125367588869 385.23930155709434L703.3476807297357 436.7565133634446L699.2715936417608 436.7565133634446L667.7951433512874 385.08078705922867L661.9301069302568 369.5916561249238L661.1148895126619 369.5916561249238L663.4020272675812 386.55270739655293L663.4020272675812 463.3416591483479L650.6755775817926 463.3416591483479L650.6755775817926 349.211220685049L660.775215588664 349.211220685049L696.4862674649778 407.58984575615705L701.8757603924114 420.29365051367904L702.1927893881428 420.29365051367904L707.2426083915784 407.25017183215914L741.3232254327024 349.211220685049L751.9210518614374 349.211220685049L751.9210518614374 463.3416591483479L738.4020296863204 463.3416591483479ZM782.7407992321814 381.8199173888487L802.3060172544612 434.6505350346575L806.8802927642997 450.29818046682806L807.6955101818947 450.29818046682806L811.273408848006 434.4920205367918L827.0795687780424 381.8199173888487L840.3042068856944 381.8199173888487L816.1647133535761 455.0309704745323Q813.4020321050597 463.0246301526165 810.7072856413429 470.52010140883715Q808.0125391776261 478.0155726650578 804.7516695072461 483.8806090860884Q801.4907998368662 489.7456455071191 797.4147127488912 493.25560938843086Q793.3386256609163 496.7655732697426 787.9491327334827 496.7655732697426L787.9491327334827 496.7655732697426Q782.0840963124521 496.7655732697426 778.347683148475 495.1351384345526L778.347683148475 495.1351384345526L780.6121759751278 483.8806090860884Q782.7407992321814 484.6958265036834 784.6882630631028 484.6958265036834L784.6882630631028 484.6958265036834Q789.2625385729413 484.6958265036834 793.4971401587819 479.89510171117956Q797.7317417446226 475.0717319904092 800.5170679214054 463.3416591483479L800.5170679214054 463.3416591483479L767.7498567197401 381.8199173888487L782.7407992321814 381.8199173888487ZM853.0080116432164 381.8199173888487L866.0514903247363 381.8199173888487L866.0514903247363 428.28731019176325Q866.0514903247363 434.6505350346575 866.7987729575317 439.4512598271613Q867.5234106620605 444.2746295479317 869.3123599951163 447.4449195052456Q871.1013093281719 450.61520946255945 874.2036645006862 452.24564429774944Q877.3060196732005 453.87607913293937 882.0388096809047 453.87607913293937L882.0388096809047 453.87607913293937Q886.4319257646112 453.87607913293937 889.8513099328567 452.4947385086812Q893.293339029369 451.113397884423 895.9654405648191 448.667745631638Q898.660187028536 446.22209337885306 900.6982305725235 443.0518034215392Q902.7362741165109 439.85886853595883 904.0496799559695 436.28096986984747L904.0496799559695 436.28096986984747L904.0496799559695 381.8199173888487L917.0931586374894 381.8199173888487L917.0931586374894 440.19854245995674Q917.0931586374894 446.0635788809874 917.5007673462869 452.3362240108155Q917.9083760550843 458.60886914064366 918.8821079705451 463.3416591483479L918.8821079705451 463.3416591483479L909.9147163770001 463.3416591483479L906.6538467066202 450.4566949646937L905.8386292890252 450.4566949646937Q902.0795711967817 456.819919807588 895.7389912821538 461.0545213934286Q889.3757664392597 465.2891229792693 879.5931574281198 465.2891229792693L879.5931574281198 465.2891229792693Q873.0714180873598 465.2891229792693 868.0895338687237 463.7492678571454Q863.1302945783542 462.20941273502154 859.7788451949082 458.29184014491227Q856.427395811462 454.374267554803 854.7290261914725 447.7619485009769Q853.0080116432164 441.17227437541743 853.0080116432164 431.0499914402796L853.0080116432164 431.0499914402796L853.0080116432164 381.8199173888487ZM1007.5822919905336 463.3416591483479L994.5388133090137 463.3416591483479L994.5388133090137 416.87426634543334Q994.5388133090137 404.1478166596449 990.8703349298362 397.71665703195106Q987.2018565506587 391.2854974042572 977.4192475395188 391.2854974042572L977.4192475395188 391.2854974042572Q968.7688849417053 391.2854974042572 963.1529427316066 395.92770769889535Q957.5143555932411 400.5699179935335 955.2498627665884 407.58984575615705L955.2498627665884 407.58984575615705L955.2498627665884 463.3416591483479L942.2063840850685 463.3416591483479L942.2063840850685 381.8199173888487L951.3322901764791 381.8199173888487L953.777942429264 391.7610408978543L954.4346453489934 391.7610408978543Q958.3295730108362 386.55270739655293 964.9418920646622 383.2012580131069Q971.5542111184882 379.8724535579273 980.6801172098988 379.8724535579273L980.6801172098988 379.8724535579273Q987.3603710485245 379.8724535579273 992.4101900519602 381.4123086800512Q997.4600090553956 382.95216380217505 1000.8114584388418 386.8697363922843Q1004.1629078222879 390.7873089823936 1005.8612774422775 397.39962803621967Q1007.5822919905336 403.98930216177916 1007.5822919905336 414.111585096917L1007.5822919905336 414.111585096917L1007.5822919905336 463.3416591483479ZM1093.836823757737 385.23930155709434L1093.836823757737 467.1007172405915Q1093.836823757737 482.9068771706277 1085.4355553708554 490.40234842684833Q1077.0342869839737 497.897819683069 1060.571424134208 497.897819683069L1060.571424134208 497.897819683069Q1050.7888151230682 497.897819683069 1044.8331989889714 496.6749935566765Q1038.8775828548746 495.452167430284 1034.642981269034 493.50470359936264L1034.642981269034 493.50470359936264L1038.0623654372796 482.4086887487641Q1041.8214235295231 483.8806090860884 1046.3730541110954 485.194014925547Q1050.947329620934 486.4847758367391 1058.2842863792887 486.4847758367391L1058.2842863792887 486.4847758367391Q1065.12305471578 486.4847758367391 1069.448236014687 485.2619497103466Q1073.7734173135937 484.0391235839541 1076.3775840642443 481.18586262237164Q1078.981750814895 478.3326016607891 1079.9781276586223 473.84890586401673Q1080.9518595740828 469.3652100672442 1080.9518595740828 463.18314465048223L1080.9518595740828 463.18314465048223L1080.9518595740828 455.3479994702637L1080.2951566543536 455.3479994702637Q1077.0342869839737 460.080789477968 1071.9844679805378 462.61702144381906Q1066.9346489771024 465.1306084814036 1058.7824748011524 465.1306084814036L1058.7824748011524 465.1306084814036Q1042.2969670231203 465.1306084814036 1034.552401555968 454.87245597666663Q1026.8078360888153 444.59165854366313 1026.8078360888153 422.89781726432966L1026.8078360888153 422.89781726432966Q1026.8078360888153 402.0418383308578 1036.7716045260877 391.1949176911911Q1046.7127280350933 380.34799705152443 1066.1194315595073 380.34799705152443L1066.1194315595073 380.34799705152443Q1075.4038521487837 380.34799705152443 1082.0161712026097 381.8199173888487Q1088.6058453281692 383.29183772617296 1093.836823757737 385.23930155709434L1093.836823757737 385.23930155709434ZM1061.046967627805 453.7175646350737L1061.046967627805 453.7175646350737Q1069.3803012298872 453.7175646350737 1074.090446309325 449.57354276229916Q1078.8232363170293 445.4068759612581 1080.793345076217 436.59799886557886L1080.793345076217 436.59799886557886L1080.793345076217 394.8633960703686Q1074.2716057354573 391.7610408978543 1064.1493228003194 391.7610408978543L1064.1493228003194 391.7610408978543Q1053.0759528779874 391.7610408978543 1046.7127280350933 399.2565121540749Q1040.3495031921989 406.7746283385621 1040.3495031921989 422.739302766464L1040.3495031921989 422.739302766464Q1040.3495031921989 429.60071603122185 1041.4817496055252 435.3072379543868Q1042.6366409471182 441.01375987755176 1045.0822931999032 445.0898469655267Q1047.527945452688 449.1659340535017 1051.4455180427974 451.4304268801544Q1055.3404457046402 453.7175646350737 1061.046967627805 453.7175646350737ZM1168.180123256747 434.96756403038887L1168.180123256747 349.211220685049L1181.699145431864 349.211220685049L1181.699145431864 438.22843370076885Q1181.699145431864 451.27191238228875 1175.9246887238994 458.1333256470466Q1170.1275870876684 464.9720939835379 1158.397514245607 464.9720939835379L1158.397514245607 464.9720939835379Q1157.0841084061485 464.9720939835379 1155.1366445752271 464.8135794856722Q1153.1665358160392 464.6550649878065 1151.2190719851178 464.3153910638086Q1149.2716081541967 463.9983620680772 1147.3920791080748 463.5001736462136Q1145.5125500619529 463.0246301526165 1144.3803036486265 462.36792723288727L1144.3803036486265 462.36792723288727L1146.9844703992771 450.79636888869163Q1151.5361009808494 452.90234721747873 1156.9255939082827 452.90234721747873L1156.9255939082827 452.90234721747873Q1163.764362244774 452.90234721747873 1165.9835652148938 448.10162242497483Q1168.180123256747 443.27825270420453 1168.180123256747 434.96756403038887L1168.180123256747 434.96756403038887ZM1212.6774073004738 463.3416591483479L1212.6774073004738 381.8199173888487L1225.7208859819934 381.8199173888487L1225.7208859819934 463.3416591483479L1212.6774073004738 463.3416591483479ZM1209.9147260519574 357.04636586526755L1209.9147260519574 357.04636586526755Q1209.9147260519574 353.28730777302394 1212.4509580178083 350.5925613093072Q1214.964545055393 347.8978148455904 1218.8821176455021 347.8978148455904L1218.8821176455021 347.8978148455904Q1222.7996902356115 347.8978148455904 1225.5623714841279 350.5925613093072Q1228.3476976609109 353.28730777302394 1228.3476976609109 357.04636586526755L1228.3476976609109 357.04636586526755Q1228.3476976609109 360.7827790292446 1225.5623714841279 363.22843128202953Q1222.7996902356115 365.67408353481454 1218.8821176455021 365.67408353481454L1218.8821176455021 365.67408353481454Q1214.964545055393 365.67408353481454 1212.4509580178083 363.22843128202953Q1209.9147260519574 360.7827790292446 1209.9147260519574 357.04636586526755ZM1318.9953455118207 463.3416591483479L1305.9518668303008 463.3416591483479L1305.9518668303008 416.87426634543334Q1305.9518668303008 404.1478166596449 1302.2833884511233 397.71665703195106Q1298.6149100719458 391.2854974042572 1288.832301060806 391.2854974042572L1288.832301060806 391.2854974042572Q1280.1819384629925 391.2854974042572 1274.5659962528935 395.92770769889535Q1268.927409114528 400.5699179935335 1266.6629162878753 407.58984575615705L1266.6629162878753 407.58984575615705L1266.6629162878753 463.3416591483479L1253.6194376063554 463.3416591483479L1253.6194376063554 381.8199173888487L1262.7453436977662 381.8199173888487L1265.190995950551 391.7610408978543L1265.8476988702805 391.7610408978543Q1269.7426265321233 386.55270739655293 1276.3549455859493 383.2012580131069Q1282.9672646397753 379.8724535579273 1292.0931707311859 379.8724535579273L1292.0931707311859 379.8724535579273Q1298.7734245698116 379.8724535579273 1303.823243573247 381.4123086800512Q1308.8730625766827 382.95216380217505 1312.224511960129 386.8697363922843Q1315.5759613435748 390.7873089823936 1317.2743309635646 397.39962803621967Q1318.9953455118207 403.98930216177916 1318.9953455118207 414.111585096917L1318.9953455118207 414.111585096917L1318.9953455118207 463.3416591483479ZM1450.40386424248 463.3416591483479L1408.8277759451353 410.5110415025391L1401.1737901910492 410.5110415025391L1401.1737901910492 463.3416591483479L1387.6321230876656 463.3416591483479L1387.6321230876656 349.211220685049L1401.1737901910492 349.211220685049L1401.1737901910492 402.3588673265892L1408.5107469494042 400.0717295716699L1446.8259655763686 349.211220685049L1462.4736110085391 349.211220685049L1424.3169068794405 398.28278023861424L1417.4781385429492 403.6722731660478L1425.7888272167647 410.1940125068077L1467.5234300119748 463.3416591483479L1450.40386424248 463.3416591483479ZM1488.560568371579 463.3416591483479L1488.560568371579 381.8199173888487L1501.6040470530988 381.8199173888487L1501.6040470530988 463.3416591483479L1488.560568371579 463.3416591483479ZM1485.775242194796 357.04636586526755L1485.775242194796 357.04636586526755Q1485.775242194796 353.28730777302394 1488.311474160647 350.5925613093072Q1490.8477061264985 347.8978148455904 1494.7426337883412 347.8978148455904L1494.7426337883412 347.8978148455904Q1498.6602063784503 347.8978148455904 1501.445532555233 350.5925613093072Q1504.2082138037495 353.28730777302394 1504.2082138037495 357.04636586526755L1504.2082138037495 357.04636586526755Q1504.2082138037495 360.7827790292446 1501.445532555233 363.22843128202953Q1498.6602063784503 365.67408353481454 1494.7426337883412 365.67408353481454L1494.7426337883412 365.67408353481454Q1490.8477061264985 365.67408353481454 1488.311474160647 363.22843128202953Q1485.775242194796 360.7827790292446 1485.775242194796 357.04636586526755ZM1590.3042310730873 463.3416591483479L1577.2607523915676 463.3416591483479L1577.2607523915676 417.19129534116473Q1577.2607523915676 410.6695560004048 1576.6719842566376 405.86883120790094Q1576.1058610499745 401.0681064153971 1574.4754262147844 397.8072367450172Q1572.8449913795948 394.5463670746372 1569.8332159201464 392.9159322394472Q1566.8214404606983 391.2854974042572 1561.9301359551282 391.2854974042572L1561.9301359551282 391.2854974042572Q1554.4346646989077 391.2854974042572 1549.4527804802715 395.8371279858293Q1544.4708962616355 400.41140349566786 1542.5234324307141 407.25017183215914L1542.5234324307141 407.25017183215914L1542.5234324307141 463.3416591483479L1529.4799537491942 463.3416591483479L1529.4799537491942 381.8199173888487L1538.6058598406048 381.8199173888487L1541.0515120933899 391.7610408978543L1541.7082150131191 391.7610408978543Q1546.1013310968256 386.55270739655293 1551.8984327330568 383.2012580131069Q1557.6955343692875 379.8724535579273 1566.9799549585641 379.8724535579273L1566.9799549585641 379.8724535579273Q1574.8151001387823 379.8724535579273 1579.774339429152 382.8842290173755Q1584.7562236477881 385.89600447682363 1587.5189048963043 393.3914757330443L1587.5189048963043 393.3914757330443Q1591.277962988548 387.02825089015005 1597.8676371141073 383.4503522240387Q1604.4799561679336 379.8724535579273 1612.7906448417493 379.8724535579273L1612.7906448417493 379.8724535579273Q1619.652058106507 379.8724535579273 1624.362203185945 381.4123086800512Q1629.0949931936489 382.95216380217505 1632.1973483661632 386.8697363922843Q1635.2997035386775 390.7873089823936 1636.681044162936 397.4675628210192Q1638.0623847871939 404.1478166596449 1638.0623847871939 414.4286140926484L1638.0623847871939 414.4286140926484L1638.0623847871939 463.3416591483479L1625.018906105674 463.3416591483479L1625.018906105674 414.27009959478266Q1625.018906105674 408.40506317375207 1624.4527828990108 404.0798818748453Q1623.8866596923476 399.7547005759385 1622.1656451440917 396.90143961435604Q1620.467275524102 394.0481786527736 1617.4328551363874 392.6668380285154Q1614.4210796769391 391.2854974042572 1609.5297751713692 391.2854974042572L1609.5297751713692 391.2854974042572Q1601.3776009954192 391.2854974042572 1596.8259704138472 395.8371279858293Q1592.2516949040087 400.41140349566786 1590.3042310730873 408.8806066673491L1590.3042310730873 408.8806066673491L1590.3042310730873 463.3416591483479Z " fill="#eee2dc" transform="matrix(0.5341676921399623,0,0,0.5341676921399623,0,74.10165270657279)"/></g></svg>